<svg width="32" height="33" viewBox="0 0 32 33" fill="none" xmlns="http://www.w3.org/2000/svg">
<mask id="mask0_266_377" style="mask-type:luminance" maskUnits="userSpaceOnUse" x="0" y="7" width="32" height="26">
<path fill-rule="evenodd" clip-rule="evenodd" d="M0.166656 7.35522H31.1776V32.9761H0.166656V7.35522Z" fill="white"/>
</mask>
<g mask="url(#mask0_266_377)">
<path fill-rule="evenodd" clip-rule="evenodd" d="M7.63285 9.73022C6.9346 9.73022 4.60077 10.0121 3.93102 13.6284L2.70869 23.1284C2.31127 25.7931 2.61844 27.7216 3.62385 28.8886C4.6166 30.0412 6.3931 30.6017 9.0531 30.6017H22.2708C23.9301 30.6017 26.1959 30.2708 27.5639 28.6906C28.65 27.4382 29.0237 25.5731 28.6754 23.1458L27.4419 13.5635C26.9163 11.2027 25.5293 9.73022 23.7496 9.73022H7.63285ZM22.2708 32.9767H9.0531C5.66002 32.9767 3.2961 32.1455 1.82519 30.4371C0.347936 28.7239 -0.146064 26.1541 0.357436 22.8006L1.5861 13.2595C2.3936 8.88472 5.34652 7.35522 7.63285 7.35522H23.7496C26.0454 7.35522 28.8369 8.87997 29.7789 13.1566L31.0282 22.826C31.4763 25.9467 30.9158 28.45 29.3594 30.2455C27.8109 32.0315 25.3599 32.9767 22.2708 32.9767V32.9767Z" fill="#A2A2A2"/>
</g>
<path fill-rule="evenodd" clip-rule="evenodd" d="M22.4882 9.38224C21.8327 9.38224 21.3007 8.85024 21.3007 8.19474C21.3007 5.07715 18.7642 2.54224 15.6482 2.54224H15.6244C14.1345 2.54224 12.6826 3.14232 11.6297 4.1889C10.572 5.24182 9.96558 6.70324 9.96558 8.19474C9.96558 8.85024 9.43358 9.38224 8.77808 9.38224C8.12258 9.38224 7.59058 8.85024 7.59058 8.19474C7.59058 6.07465 8.45191 4.00207 9.95291 2.50582C11.4492 1.01907 13.5122 0.167236 15.6197 0.167236H15.6529C20.0752 0.167236 23.6757 3.76774 23.6757 8.19474C23.6757 8.85024 23.1437 9.38224 22.4882 9.38224" fill="#A2A2A2"/>
<path fill-rule="evenodd" clip-rule="evenodd" d="M20.3436 16.5134H20.2707C19.6152 16.5134 19.0832 15.9814 19.0832 15.3259C19.0832 14.6704 19.6152 14.1384 20.2707 14.1384C20.9262 14.1384 21.4946 14.6704 21.4946 15.3259C21.4946 15.9814 20.9991 16.5134 20.3436 16.5134" fill="#A2A2A2"/>
<path fill-rule="evenodd" clip-rule="evenodd" d="M11.111 16.5134H11.0397C10.3842 16.5134 9.85223 15.9814 9.85223 15.3259C9.85223 14.6704 10.3842 14.1384 11.0397 14.1384C11.6952 14.1384 12.2637 14.6704 12.2637 15.3259C12.2637 15.9814 11.7665 16.5134 11.111 16.5134" fill="#A2A2A2"/>
</svg>
