<svg width="33" height="32" viewBox="0 0 33 32" fill="none" xmlns="http://www.w3.org/2000/svg">
<mask id="mask0_266_369" style="mask-type:luminance" maskUnits="userSpaceOnUse" x="0" y="0" width="33" height="32">
<path fill-rule="evenodd" clip-rule="evenodd" d="M0.166672 0.749756H32.5815V31.6263H0.166672V0.749756Z" fill="white"/>
</mask>
<g mask="url(#mask0_266_369)">
<path fill-rule="evenodd" clip-rule="evenodd" d="M3.05419 15.1947C5.27402 22.1012 14.0441 27.6856 16.3748 29.0679C18.7134 27.6714 27.5468 22.0252 29.6954 15.201C31.1061 10.7899 29.7967 5.20228 24.5939 3.52553C22.0732 2.71644 19.1329 3.20886 17.1031 4.77953C16.6788 5.10569 16.0898 5.11203 15.6623 4.78903C13.5121 3.17244 10.7033 2.69903 8.14302 3.52553C2.94811 5.20069 1.64344 10.7883 3.05419 15.1947M16.3764 31.6265C16.18 31.6265 15.9853 31.579 15.8079 31.4824C15.3124 31.2117 3.63844 24.777 0.793191 15.9199C0.791608 15.9199 0.791608 15.9183 0.791608 15.9183C-0.994392 10.3418 0.994275 3.33394 7.41469 1.26453C10.4294 0.289193 13.7148 0.718276 16.3716 2.39503C18.9461 0.767359 22.3661 0.317693 25.3206 1.26453C31.7474 3.33711 33.7424 10.3434 31.9579 15.9183C29.2045 24.6741 17.4451 31.2054 16.9464 31.4793C16.769 31.5774 16.5727 31.6265 16.3764 31.6265" fill="#A2A2A2"/>
</g>
<path fill-rule="evenodd" clip-rule="evenodd" d="M25.7434 12.8228C25.1306 12.8228 24.6113 12.3525 24.5606 11.7318C24.4561 10.4303 23.5853 9.33151 22.3455 8.93093C21.7201 8.72826 21.3781 8.05851 21.5792 7.43626C21.7834 6.81243 22.4469 6.4736 23.0739 6.66993C25.2319 7.36818 26.744 9.27926 26.9293 11.5387C26.9815 12.1926 26.4954 12.7658 25.8415 12.818C25.8083 12.8212 25.7766 12.8228 25.7434 12.8228" fill="#A2A2A2"/>
</svg>
