<svg width="34" height="36" viewBox="0 0 34 36" fill="none" xmlns="http://www.w3.org/2000/svg">
<path d="M12.4776 31.9051V27.0492C12.4775 25.8187 13.4781 24.819 14.7175 24.8113H19.2683C20.5132 24.8113 21.5224 25.8132 21.5224 27.0492V27.0492V31.891C21.5224 32.9583 22.3897 33.8256 23.4647 33.8334H26.5694C28.0194 33.8371 29.4114 33.2678 30.438 32.2512C31.4647 31.2346 32.0417 29.8541 32.0417 28.4145V14.621C32.0416 13.4581 31.5224 12.355 30.624 11.609L20.0764 3.23434C18.2326 1.76953 15.5993 1.81684 13.8102 3.34694L3.48943 11.609C2.5485 12.333 1.98612 13.4394 1.95833 14.621V28.4004C1.95833 31.401 4.40835 33.8334 7.4306 33.8334H10.4645C10.982 33.8371 11.4797 33.6356 11.847 33.2736C12.2143 32.9116 12.4209 32.4189 12.4209 31.9051H12.4776Z" stroke="#A2A2A2" stroke-width="2.5"/>
</svg>
