<svg width="31" height="35" viewBox="0 0 31 35" fill="none" xmlns="http://www.w3.org/2000/svg">
<mask id="mask0_266_387" style="mask-type:luminance" maskUnits="userSpaceOnUse" x="0" y="0" width="31" height="29">
<path fill-rule="evenodd" clip-rule="evenodd" d="M0.750153 0.583252H30.0369V28.0509H0.750153V0.583252Z" fill="white"/>
</mask>
<g mask="url(#mask0_266_387)">
<path fill-rule="evenodd" clip-rule="evenodd" d="M15.3913 2.95825C9.85751 2.95825 6.00051 7.29342 6.00051 11.1837C6.00051 14.4754 5.08692 15.997 4.27942 17.3397C3.63184 18.4179 3.12042 19.2698 3.12042 21.1207C3.38484 24.1068 5.35609 25.6759 15.3913 25.6759C25.371 25.6759 27.404 24.0372 27.6668 21.0178C27.6621 19.2698 27.1507 18.4179 26.5031 17.3397C25.6956 15.997 24.782 14.4754 24.782 11.1837C24.782 7.29342 20.925 2.95825 15.3913 2.95825M15.3913 28.0509C7.98759 28.0509 1.29642 27.5284 0.750174 21.222C0.745424 18.6127 1.54184 17.2858 2.24484 16.1173C2.95576 14.933 3.62551 13.8168 3.62551 11.1837C3.62551 6.06475 8.35334 0.583252 15.3913 0.583252C22.4292 0.583252 27.157 6.06475 27.157 11.1837C27.157 13.8168 27.8268 14.933 28.5377 16.1173C29.2407 17.2858 30.0371 18.6127 30.0371 21.1207C29.4845 27.5284 22.7949 28.0509 15.3913 28.0509" fill="#A2A2A2"/>
</g>
<path fill-rule="evenodd" clip-rule="evenodd" d="M15.314 34.625H15.3108C13.5359 34.6234 11.856 33.8412 10.5814 32.421C10.1428 31.9349 10.1824 31.1828 10.6701 30.7458C11.1577 30.3056 11.9082 30.3452 12.3468 30.8345C13.167 31.748 14.2199 32.25 15.3124 32.25H15.314C16.4112 32.25 17.4689 31.748 18.2907 30.8329C18.7308 30.3468 19.4813 30.3072 19.9674 30.7458C20.4551 31.1844 20.4947 31.9365 20.0561 32.4225C18.7767 33.8428 17.0937 34.625 15.314 34.625" fill="#A2A2A2"/>
</svg>
