<svg width="50" height="48" viewBox="0 0 50 48" fill="none" xmlns="http://www.w3.org/2000/svg">
<path d="M20.3667 7.34398L20.839 7.50798V7.50798L20.3667 7.34398ZM19.018 11.2282L19.2164 11.6872L19.4182 11.5999L19.4903 11.3923L19.018 11.2282ZM16.4729 12.6414L16.3765 13.132L16.5839 13.1728L16.7577 13.0524L16.4729 12.6414ZM12.2837 11.8185L12.1873 12.3091L12.2837 11.8185ZM10.0977 12.7791L9.66918 12.5215H9.66918L10.0977 12.7791ZM7.42639 17.2209L6.99791 16.9632H6.99791L7.42639 17.2209ZM7.65275 19.5186L7.28547 19.8579L7.28547 19.8579L7.65275 19.5186ZM10.4897 22.5899L10.987 22.6417L11.0105 22.4168L10.857 22.2507L10.4897 22.5899ZM10.4897 25.4101L10.857 25.7493L11.0105 25.5832L10.987 25.3583L10.4897 25.4101ZM7.65275 28.4814L8.02004 28.8206H8.02004L7.65275 28.4814ZM7.42639 30.7791L6.99791 31.0368H6.99791L7.42639 30.7791ZM10.0977 35.2209L10.5261 34.9632H10.5261L10.0977 35.2209ZM12.2837 36.1815L12.3801 36.6722L12.3801 36.6722L12.2837 36.1815ZM16.4729 35.3586L16.7577 34.9476L16.5839 34.8272L16.3765 34.868L16.4729 35.3586ZM19.018 36.7718L19.4903 36.6077L19.4182 36.4001L19.2164 36.3128L19.018 36.7718ZM20.3667 40.656L19.8943 40.82L20.3667 40.656ZM29.6333 40.656L29.161 40.492L29.6333 40.656ZM30.982 36.7718L30.7836 36.3128L30.5818 36.4001L30.5097 36.6077L30.982 36.7718ZM33.5271 35.3586L33.6235 34.868L33.4161 34.8272L33.2423 34.9476L33.5271 35.3586ZM37.7163 36.1815L37.8127 35.6909L37.7163 36.1815ZM39.9023 35.2209L39.4739 34.9632L39.9023 35.2209ZM42.5736 30.7791L43.0021 31.0368L42.5736 30.7791ZM42.3473 28.4814L41.98 28.8206L42.3473 28.4814ZM39.5103 25.4101L39.013 25.3583L38.9895 25.5832L39.143 25.7493L39.5103 25.4101ZM39.5103 22.5899L39.143 22.2507L38.9895 22.4168L39.013 22.6417L39.5103 22.5899ZM42.3473 19.5186L42.7145 19.8579V19.8579L42.3473 19.5186ZM42.5736 17.2209L43.0021 16.9632L43.0021 16.9632L42.5736 17.2209ZM39.9023 12.7791L39.4739 13.0368L39.9023 12.7791ZM37.7163 11.8185L37.6199 11.3278L37.7163 11.8185ZM33.5271 12.6414L33.2423 13.0524L33.4161 13.1728L33.6235 13.132L33.5271 12.6414ZM30.982 11.2282L30.5097 11.3923L30.5818 11.5999L30.7836 11.6872L30.982 11.2282ZM29.6333 7.34398L30.1057 7.17997V7.17997L29.6333 7.34398ZM20.839 7.50798C21.0485 6.90454 21.6172 6.5 22.256 6.5V5.5C21.1914 5.5 20.2436 6.17424 19.8943 7.17997L20.839 7.50798ZM19.4903 11.3923L20.839 7.50798L19.8943 7.17997L18.5456 11.0642L19.4903 11.3923ZM16.7577 13.0524C17.5229 12.522 18.3461 12.0634 19.2164 11.6872L18.8196 10.7693C17.8885 11.1718 17.0074 11.6626 16.188 12.2305L16.7577 13.0524ZM12.1873 12.3091L16.3765 13.132L16.5692 12.1508L12.3801 11.3278L12.1873 12.3091ZM10.5261 13.0368C10.8621 12.4782 11.533 12.1805 12.1873 12.3091L12.3801 11.3278C11.3185 11.1193 10.2252 11.597 9.66918 12.5215L10.5261 13.0368ZM7.85487 17.4785L10.5261 13.0368L9.66918 12.5215L6.99791 16.9632L7.85487 17.4785ZM8.02004 19.1794C7.59209 18.7161 7.52174 18.0325 7.85487 17.4785L6.99791 16.9632C6.43909 17.8924 6.55143 19.0632 7.28547 19.8579L8.02004 19.1794ZM10.857 22.2507L8.02004 19.1794L7.28547 19.8579L10.1224 22.9292L10.857 22.2507ZM10.9167 24C10.9167 23.5414 10.9405 23.0883 10.987 22.6417L9.99241 22.5381C9.94231 23.019 9.91667 23.5067 9.91667 24H10.9167ZM10.987 25.3583C10.9405 24.9117 10.9167 24.4586 10.9167 24H9.91667C9.91667 24.4933 9.94231 24.981 9.99241 25.4619L10.987 25.3583ZM8.02004 28.8206L10.857 25.7493L10.1224 25.0708L7.28546 28.1421L8.02004 28.8206ZM7.85487 30.5215C7.52174 29.9675 7.59208 29.2839 8.02004 28.8206L7.28547 28.1421C6.55143 28.9368 6.43909 30.1076 6.99791 31.0368L7.85487 30.5215ZM10.5261 34.9632L7.85487 30.5215L6.99791 31.0368L9.66918 35.4785L10.5261 34.9632ZM12.1873 35.6909C11.533 35.8195 10.8621 35.5218 10.5261 34.9632L9.66918 35.4785C10.2252 36.403 11.3185 36.8807 12.3801 36.6722L12.1873 35.6909ZM16.3765 34.868L12.1873 35.6909L12.3801 36.6722L16.5692 35.8492L16.3765 34.868ZM19.2164 36.3128C18.3461 35.9366 17.5229 35.478 16.7577 34.9476L16.188 35.7695C17.0074 36.3374 17.8885 36.8282 18.8196 37.2307L19.2164 36.3128ZM20.839 40.492L19.4903 36.6077L18.5456 36.9358L19.8943 40.82L20.839 40.492ZM22.256 41.5C21.6172 41.5 21.0485 41.0955 20.839 40.492L19.8943 40.82C20.2436 41.8258 21.1914 42.5 22.256 42.5V41.5ZM27.744 41.5H22.256V42.5H27.744V41.5ZM29.161 40.492C28.9515 41.0955 28.3828 41.5 27.744 41.5V42.5C28.8086 42.5 29.7565 41.8258 30.1057 40.82L29.161 40.492ZM30.5097 36.6077L29.161 40.492L30.1057 40.82L31.4544 36.9358L30.5097 36.6077ZM33.2423 34.9476C32.4771 35.478 31.6539 35.9366 30.7836 36.3128L31.1804 37.2307C32.1115 36.8282 32.9926 36.3374 33.812 35.7695L33.2423 34.9476ZM37.8127 35.6909L33.6235 34.868L33.4308 35.8492L37.6199 36.6722L37.8127 35.6909ZM39.4739 34.9632C39.1379 35.5218 38.467 35.8195 37.8127 35.6909L37.6199 36.6722C38.6815 36.8807 39.7748 36.403 40.3308 35.4785L39.4739 34.9632ZM42.1451 30.5215L39.4739 34.9632L40.3308 35.4785L43.0021 31.0368L42.1451 30.5215ZM41.98 28.8206C42.4079 29.2839 42.4783 29.9675 42.1451 30.5215L43.0021 31.0368C43.5609 30.1076 43.4486 28.9368 42.7145 28.1421L41.98 28.8206ZM39.143 25.7493L41.98 28.8206L42.7145 28.1421L39.8776 25.0708L39.143 25.7493ZM39.0833 24C39.0833 24.4586 39.0595 24.9117 39.013 25.3583L40.0076 25.4619C40.0577 24.981 40.0833 24.4933 40.0833 24H39.0833ZM39.013 22.6417C39.0595 23.0883 39.0833 23.5414 39.0833 24H40.0833C40.0833 23.5067 40.0577 23.019 40.0076 22.5381L39.013 22.6417ZM41.98 19.1794L39.143 22.2507L39.8776 22.9292L42.7145 19.8579L41.98 19.1794ZM42.1451 17.4785C42.4783 18.0325 42.4079 18.7161 41.98 19.1794L42.7145 19.8579C43.4486 19.0632 43.5609 17.8924 43.0021 16.9632L42.1451 17.4785ZM39.4739 13.0368L42.1451 17.4785L43.0021 16.9632L40.3308 12.5215L39.4739 13.0368ZM37.8127 12.3091C38.467 12.1805 39.1379 12.4782 39.4739 13.0368L40.3308 12.5215C39.7748 11.597 38.6815 11.1193 37.6199 11.3278L37.8127 12.3091ZM33.6235 13.132L37.8127 12.3091L37.6199 11.3278L33.4308 12.1508L33.6235 13.132ZM30.7836 11.6872C31.6539 12.0634 32.4771 12.522 33.2423 13.0524L33.812 12.2305C32.9926 11.6626 32.1115 11.1718 31.1804 10.7693L30.7836 11.6872ZM29.161 7.50798L30.5097 11.3923L31.4544 11.0642L30.1057 7.17997L29.161 7.50798ZM27.744 6.5C28.3828 6.5 28.9515 6.90454 29.161 7.50798L30.1057 7.17997C29.7565 6.17424 28.8086 5.5 27.744 5.5V6.5ZM22.256 6.5H27.744V5.5H22.256V6.5Z" fill="white"/>
<path fill-rule="evenodd" clip-rule="evenodd" d="M25 26C26.1506 26 27.0834 25.1046 27.0834 24C27.0834 22.8954 26.1506 22 25 22C23.8494 22 22.9167 22.8954 22.9167 24C22.9167 25.1046 23.8494 26 25 26Z" stroke="white"/>
</svg>
